<?xml version="1.0" encoding="UTF-8" standalone="no"?>
<!-- Created with Inkscape (http://www.inkscape.org/) -->

<svg
   xmlns:dc="http://purl.org/dc/elements/1.1/"
   xmlns:cc="http://creativecommons.org/ns#"
   xmlns:rdf="http://www.w3.org/1999/02/22-rdf-syntax-ns#"
   xmlns:svg="http://www.w3.org/2000/svg"
   xmlns="http://www.w3.org/2000/svg"
   xmlns:sodipodi="http://sodipodi.sourceforge.net/DTD/sodipodi-0.dtd"
   xmlns:inkscape="http://www.inkscape.org/namespaces/inkscape"
   width="744.09448819"
   height="1052.3622047"
   id="svg2"
   version="1.1"
   inkscape:version="0.47 r22583"
   sodipodi:docname="blade.svg">
  <defs
     id="defs4">
    <inkscape:perspective
       sodipodi:type="inkscape:persp3d"
       inkscape:vp_x="0 : 526.18109 : 1"
       inkscape:vp_y="0 : 1000 : 0"
       inkscape:vp_z="744.09448 : 526.18109 : 1"
       inkscape:persp3d-origin="372.04724 : 350.78739 : 1"
       id="perspective10" />
    <inkscape:perspective
       id="perspective3602"
       inkscape:persp3d-origin="0.5 : 0.33333333 : 1"
       inkscape:vp_z="1 : 0.5 : 1"
       inkscape:vp_y="0 : 1000 : 0"
       inkscape:vp_x="0 : 0.5 : 1"
       sodipodi:type="inkscape:persp3d" />
    <inkscape:perspective
       id="perspective3626"
       inkscape:persp3d-origin="0.5 : 0.33333333 : 1"
       inkscape:vp_z="1 : 0.5 : 1"
       inkscape:vp_y="0 : 1000 : 0"
       inkscape:vp_x="0 : 0.5 : 1"
       sodipodi:type="inkscape:persp3d" />
    <inkscape:perspective
       id="perspective3599"
       inkscape:persp3d-origin="0.5 : 0.33333333 : 1"
       inkscape:vp_z="1 : 0.5 : 1"
       inkscape:vp_y="0 : 1000 : 0"
       inkscape:vp_x="0 : 0.5 : 1"
       sodipodi:type="inkscape:persp3d" />
    <inkscape:perspective
       id="perspective3621"
       inkscape:persp3d-origin="0.5 : 0.33333333 : 1"
       inkscape:vp_z="1 : 0.5 : 1"
       inkscape:vp_y="0 : 1000 : 0"
       inkscape:vp_x="0 : 0.5 : 1"
       sodipodi:type="inkscape:persp3d" />
  </defs>
  <sodipodi:namedview
     id="base"
     pagecolor="#bde7ff"
     bordercolor="#666666"
     borderopacity="1.0"
     inkscape:pageopacity="0"
     inkscape:pageshadow="2"
     inkscape:zoom="0.70710681"
     inkscape:cx="168.89637"
     inkscape:cy="621.51174"
     inkscape:document-units="px"
     inkscape:current-layer="layer1"
     showgrid="false"
     inkscape:window-width="1280"
     inkscape:window-height="974"
     inkscape:window-x="0"
     inkscape:window-y="0"
     inkscape:window-maximized="1" />
  <metadata
     id="metadata7">
    <rdf:RDF>
      <cc:Work
         rdf:about="">
        <dc:format>image/svg+xml</dc:format>
        <dc:type
           rdf:resource="http://purl.org/dc/dcmitype/StillImage" />
        <dc:title />
      </cc:Work>
    </rdf:RDF>
  </metadata>
  <g
     inkscape:label="Layer 1"
     inkscape:groupmode="layer"
     id="layer1">
    <rect
       style="fill:#949494;fill-opacity:0;stroke:#949494;stroke-width:13.10968113;stroke-miterlimit:5;stroke-opacity:0;stroke-dasharray:none"
       id="rect3694"
       width="436.89032"
       height="436.89032"
       x="70.74102"
       y="239.66502" />
    <rect
       style="fill:#9933cc;fill-opacity:1;stroke:none"
       id="rect2820"
       width="300.32651"
       height="293.86563"
       x="249.23015"
       y="61.06546"
       ry="50.505978" />
    <g
       id="g3593"
       transform="matrix(0.8660254,-0.5,0.5,0.8660254,-53.776672,227.82743)">
      <path
         sodipodi:nodetypes="ccsccsccccsssccssscccsccccccsccccsccccccsccccsccccccsccccsccccccccccssccsccssccccsccssccccsccssccccss"
         id="rect3000"
         d="m 291.9164,133.05311 0,18.625 c 2.98912,0.0151 5.40625,2.78911 5.40625,6.21875 0,3.42964 -2.41713,6.20368 -5.40625,6.21875 l 0,91.9375 c 2.98912,0.0151 5.40625,2.78911 5.40625,6.21875 0,3.42964 -2.41713,6.20368 -5.40625,6.21875 l 0,17.28125 220.90625,0 0,-17.28125 c -0.017,1.8e-4 -0.0143,0 -0.0312,0 -3.00034,0 -5.46875,-2.77978 -5.46875,-6.21875 0,-3.43896 2.46841,-6.21875 5.46875,-6.21875 0.017,0 0.0143,-1.8e-4 0.0312,0 l 0,-91.9375 c -0.017,1.8e-4 -0.0143,0 -0.0312,0 -3.00034,0 -5.46875,-2.77979 -5.46875,-6.21875 0,-3.43896 2.46841,-6.21875 5.46875,-6.21875 0.017,0 0.0143,-1.8e-4 0.0312,0 l 0,-18.625 z m 7.21875,54.78125 c 1.67843,0 3.13003,1.17066 3.5625,2.8125 l 0.0937,0.84375 0.0312,0 0,0.125 0,11.65625 8.75,0 c 1.32226,-3.62818 9.94121,-15.09375 15.59375,-15.09375 5.27654,0 13.68551,11.50555 14.9375,15.09375 l 8.34375,0 0,-11.78125 0.0312,0 c 0.0641,-2.01445 1.68209,-3.65625 3.6875,-3.65625 1.67843,0 3.16128,1.17066 3.59375,2.8125 l 0.0937,0.84375 0.0312,0 0,0.125 0,11.65625 31.6875,0 c 2.3207,-7.39328 8.67572,-12.71875 16.1875,-12.71875 7.36356,0 13.8555,5.15211 16.21875,12.71875 l 26.65625,0 0,-11.78125 0.0312,0 c 0.0641,-2.01445 1.6821,-3.65625 3.6875,-3.65625 1.67843,0 3.16128,1.17066 3.59375,2.8125 l 0.0937,0.84375 0.0312,0 0,0.125 0,11.65625 8.75,0 c 1.32336,-3.63069 9.94236,-15.09375 15.59375,-15.09375 5.27654,0 13.68551,11.50555 14.9375,15.09375 l 6.34375,0 0,-11.78125 0.0312,0 c 0.0641,-2.01445 1.6821,-3.65625 3.6875,-3.65625 1.67843,0 3.16128,1.17066 3.59375,2.8125 l 0.0937,0.84375 0.0312,0 0,0.125 0,11.65625 0.21875,0 0,12.28125 -0.21875,0 0,11.65625 -0.0312,0 c 0,2.07141 -1.64144,3.78125 -3.6875,3.78125 -2.04606,0 -3.71875,-1.70984 -3.71875,-3.78125 l 0,-11.65625 -6.5625,0 c -1.25199,3.5882 -9.69221,15.09375 -14.96875,15.09375 -5.65139,0 -14.23914,-11.46306 -15.5625,-15.09375 l -8.53125,0 0,11.65625 c 0,2.07141 -1.67269,3.78125 -3.71875,3.78125 -2.04606,0 -3.6875,-1.70984 -3.6875,-3.78125 l -0.0312,0 0,-11.65625 -26.6875,0 c -2.3207,7.39328 -8.67574,12.71875 -16.1875,12.71875 -7.51178,0 -13.8668,-5.32547 -16.1875,-12.71875 l -31.6875,0 0,11.65625 c 0,2.07141 -1.67269,3.78125 -3.71875,3.78125 -2.04607,0 -3.6875,-1.70984 -3.6875,-3.78125 l -0.0312,0 0,-11.65625 -8.5625,0 c -1.25199,3.5882 -9.66096,15.09375 -14.9375,15.09375 -5.65139,0 -14.27039,-11.46306 -15.59375,-15.09375 l -8.53125,0 0,11.65625 c 0,2.07141 -1.67269,3.78125 -3.71875,3.78125 -2.04607,0 -3.6875,-1.70984 -3.6875,-3.78125 l -0.0312,0 0,-35.71875 0.0312,0 c 0.0636,-2.0149 1.71302,-3.65625 3.71875,-3.65625 z"
         style="fill:#f0f0f0;fill-opacity:1"
         inkscape:connector-curvature="0" />
      <rect
         y="163.45055"
         x="279.0289"
         height="91.923882"
         width="13.68211"
         id="rect3002"
         style="fill:#f0f0f0;fill-opacity:1" />
      <rect
         y="163.45055"
         x="512.03174"
         height="91.923882"
         width="13.68211"
         id="rect3002-5"
         style="fill:#f0f0f0;fill-opacity:1" />
    </g>
  </g>
</svg>
