<?xml version="1.0" encoding="UTF-8" standalone="no"?>
<!-- Created with Inkscape (http://www.inkscape.org/) -->

<svg
   xmlns:dc="http://purl.org/dc/elements/1.1/"
   xmlns:cc="http://creativecommons.org/ns#"
   xmlns:rdf="http://www.w3.org/1999/02/22-rdf-syntax-ns#"
   xmlns:svg="http://www.w3.org/2000/svg"
   xmlns="http://www.w3.org/2000/svg"
   xmlns:sodipodi="http://sodipodi.sourceforge.net/DTD/sodipodi-0.dtd"
   xmlns:inkscape="http://www.inkscape.org/namespaces/inkscape"
   width="744.09448819"
   height="1052.3622047"
   id="svg2"
   version="1.1"
   inkscape:version="0.48.3.1 r9886"
   sodipodi:docname="razor.svg">
  <defs
     id="defs4">
    <inkscape:perspective
       sodipodi:type="inkscape:persp3d"
       inkscape:vp_x="0 : 526.18109 : 1"
       inkscape:vp_y="0 : 1000 : 0"
       inkscape:vp_z="744.09448 : 526.18109 : 1"
       inkscape:persp3d-origin="372.04724 : 350.78739 : 1"
       id="perspective10" />
    <inkscape:perspective
       id="perspective4240"
       inkscape:persp3d-origin="0.5 : 0.33333333 : 1"
       inkscape:vp_z="1 : 0.5 : 1"
       inkscape:vp_y="0 : 1000 : 0"
       inkscape:vp_x="0 : 0.5 : 1"
       sodipodi:type="inkscape:persp3d" />
    <inkscape:perspective
       id="perspective4262"
       inkscape:persp3d-origin="0.5 : 0.33333333 : 1"
       inkscape:vp_z="1 : 0.5 : 1"
       inkscape:vp_y="0 : 1000 : 0"
       inkscape:vp_x="0 : 0.5 : 1"
       sodipodi:type="inkscape:persp3d" />
    <inkscape:perspective
       id="perspective4284"
       inkscape:persp3d-origin="0.5 : 0.33333333 : 1"
       inkscape:vp_z="1 : 0.5 : 1"
       inkscape:vp_y="0 : 1000 : 0"
       inkscape:vp_x="0 : 0.5 : 1"
       sodipodi:type="inkscape:persp3d" />
    <inkscape:perspective
       id="perspective4284-0"
       inkscape:persp3d-origin="0.5 : 0.33333333 : 1"
       inkscape:vp_z="1 : 0.5 : 1"
       inkscape:vp_y="0 : 1000 : 0"
       inkscape:vp_x="0 : 0.5 : 1"
       sodipodi:type="inkscape:persp3d" />
    <inkscape:perspective
       id="perspective4284-2"
       inkscape:persp3d-origin="0.5 : 0.33333333 : 1"
       inkscape:vp_z="1 : 0.5 : 1"
       inkscape:vp_y="0 : 1000 : 0"
       inkscape:vp_x="0 : 0.5 : 1"
       sodipodi:type="inkscape:persp3d" />
    <inkscape:perspective
       id="perspective4284-1"
       inkscape:persp3d-origin="0.5 : 0.33333333 : 1"
       inkscape:vp_z="1 : 0.5 : 1"
       inkscape:vp_y="0 : 1000 : 0"
       inkscape:vp_x="0 : 0.5 : 1"
       sodipodi:type="inkscape:persp3d" />
    <inkscape:perspective
       id="perspective4375"
       inkscape:persp3d-origin="0.5 : 0.33333333 : 1"
       inkscape:vp_z="1 : 0.5 : 1"
       inkscape:vp_y="0 : 1000 : 0"
       inkscape:vp_x="0 : 0.5 : 1"
       sodipodi:type="inkscape:persp3d" />
  </defs>
  <sodipodi:namedview
     id="base"
     pagecolor="#ff56d5"
     bordercolor="#666666"
     borderopacity="1.0"
     inkscape:pageopacity="0"
     inkscape:pageshadow="2"
     inkscape:zoom="0.98994949"
     inkscape:cx="345.38501"
     inkscape:cy="352.25245"
     inkscape:document-units="px"
     inkscape:current-layer="layer1"
     showgrid="false"
     inkscape:window-width="1280"
     inkscape:window-height="975"
     inkscape:window-x="0"
     inkscape:window-y="0"
     inkscape:window-maximized="1" />
  <metadata
     id="metadata7">
    <rdf:RDF>
      <cc:Work
         rdf:about="">
        <dc:format>image/svg+xml</dc:format>
        <dc:type
           rdf:resource="http://purl.org/dc/dcmitype/StillImage" />
        <dc:title></dc:title>
      </cc:Work>
    </rdf:RDF>
  </metadata>
  <g
     inkscape:label="Layer 1"
     inkscape:groupmode="layer"
     id="layer1">
    <g
       id="g3162"
       transform="matrix(0.70710678,0.70710678,-0.70710678,0.70710678,450.49002,-53.58007)"
       style="stroke:#000000;stroke-opacity:1;stroke-width:5.00000000999999994;stroke-miterlimit:4;stroke-dasharray:none;stroke-linejoin:round;fill:#ffffff;fill-opacity:1">
      <rect
         y="451.66675"
         x="265.26428"
         height="174.53725"
         width="49.299042"
         id="rect2828-5"
         style="fill:#ffffff;fill-opacity:1;stroke:#000000;stroke-width:5.00000000999999994;stroke-opacity:1;stroke-miterlimit:4;stroke-dasharray:none;stroke-linejoin:round" />
      <rect
         y="372.38193"
         x="184.19666"
         height="39.616493"
         width="211.43422"
         id="rect2830-9"
         style="fill:#ffffff;fill-opacity:1;stroke:#000000;stroke-width:5.00000000999999994;stroke-opacity:1;stroke-miterlimit:4;stroke-dasharray:none;stroke-linejoin:round" />
      <path
         id="rect3628-8"
         d="m 176.875,421.15625 0,13.1875 226.09375,0 0,-13.1875 -10.6875,0 0,6.5625 -9.34375,0 0,-6.5625 -4.40625,0 0,6.5625 -9.3125,0 0,-6.5625 -4.40625,0 0,6.5625 -9.34375,0 0,-6.5625 -4.40625,0 0,6.5625 -9.3125,0 0,-6.5625 -4.40625,0 0,6.5625 -9.34375,0 0,-6.5625 -4.375,0 0,6.5625 -9.34375,0 0,-6.5625 -4.40625,0 0,6.5625 -9.34375,0 0,-6.5625 -4.375,0 0,6.5625 -9.34375,0 0,-6.5625 -4.40625,0 0,6.5625 -9.3125,0 0,-6.5625 -4.40625,0 0,6.5625 -9.34375,0 0,-6.5625 -4.40625,0 0,6.5625 -9.3125,0 0,-6.5625 -4.53125,0 0,6.5625 -9.25,0 0,-6.5625 -4.5,0 0,6.5625 -9.25,0 0,-6.5625 -4.5,0 0,6.5625 -9.25,0 0,-6.5625 -4.5,0 0,6.46875 -9.21875,0 0,-6.46875 -13.75,0 z"
         style="fill:#ffffff;fill-opacity:1;stroke:#000000;stroke-width:5.00000000999999994;stroke-opacity:1;stroke-miterlimit:4;stroke-dasharray:none;stroke-linejoin:round"
         inkscape:connector-curvature="0" />
      <rect
         y="437.36346"
         x="272.62152"
         height="10.788952"
         width="34.584457"
         id="rect3632-7"
         style="fill:#ffffff;fill-opacity:1;stroke:#000000;stroke-width:5.00000000999999994;stroke-opacity:1;stroke-miterlimit:4;stroke-dasharray:none;stroke-linejoin:round" />
      <rect
         y="633.17163"
         x="263.64984"
         height="28.284271"
         width="52.527931"
         id="rect3634-0"
         style="fill:#ffffff;fill-opacity:1;stroke:#000000;stroke-width:5.00000000999999994;stroke-opacity:1;stroke-miterlimit:4;stroke-dasharray:none;stroke-linejoin:round" />
    </g>
  </g>
</svg>
